<svg id="Layer_1" data-name="Layer 1" xmlns="http://www.w3.org/2000/svg" viewBox="0 0 290.88 100.09"><title>industrial-plankton</title><path d="M17.28,37.63H25a1,1,0,0,1,.3,0,1.19,1.19,0,0,1,.85,1.46l-.64,2.38a1.18,1.18,0,0,1-1.15.88h-22a1.06,1.06,0,0,1-.31,0,1.18,1.18,0,0,1-.84-1.45l.64-2.39A1.19,1.19,0,0,1,3,37.63h7.1a.72.72,0,0,0,.69-.53L18.93,6.84a.71.71,0,0,0-.5-.87l-.19,0H12.16a1.1,1.1,0,0,1-.31,0A1.19,1.19,0,0,1,11,4.44l.64-2.38a1.19,1.19,0,0,1,1.15-.88h20a1.1,1.1,0,0,1,.31,0A1.19,1.19,0,0,1,34,2.68l-.64,2.38a1.19,1.19,0,0,1-1.15.88H25.55a.73.73,0,0,0-.69.53L16.59,36.73a.7.7,0,0,0,.5.87Z" style="stroke:#000;stroke-miterlimit:10;stroke-width:2.35364198684692px"/><path d="M73.5,36.4l3.77-14.07a.71.71,0,0,0-.5-.88l-.19,0H73.29a1.55,1.55,0,0,1-.31,0,1.19,1.19,0,0,1-.84-1.46L73,16.84A1.19,1.19,0,0,1,74.11,16h4.31a.72.72,0,0,0,.69-.53l2.67-10a1.19,1.19,0,0,1,1.15-.88h3.19a1.06,1.06,0,0,1,.31,0,1.19,1.19,0,0,1,.84,1.46L77.79,41.51a1.19,1.19,0,0,1-1.15.88H67.71a1.06,1.06,0,0,1-.31,0,1.19,1.19,0,0,1-.84-1.45l.82-3.09a1.2,1.2,0,0,1,1.15-.89h4.28A.71.71,0,0,0,73.5,36.4Z" style="stroke:#000;stroke-miterlimit:10;stroke-width:2.35364198684692px"/><path d="M51.91,40.9l6.41-24.06A1.18,1.18,0,0,1,59.46,16h8.65a1,1,0,0,1,.3,0,1.19,1.19,0,0,1,.85,1.45l-.83,3.09a1.19,1.19,0,0,1-1.15.89h-4a.71.71,0,0,0-.69.53L58.87,36a.71.71,0,0,0,.5.87l.19,0h3a1.54,1.54,0,0,1,.3,0,1.19,1.19,0,0,1,.85,1.46l-.83,3.09a1.18,1.18,0,0,1-1.15.88H53.06a1,1,0,0,1-.3,0A1.19,1.19,0,0,1,51.91,40.9Z" style="stroke:#000;stroke-miterlimit:10;stroke-width:2.35364198684692px"/><path d="M27.56,16H52.44a1.06,1.06,0,0,1,.31,0,1.18,1.18,0,0,1,.84,1.45l-6.4,24.06a1.19,1.19,0,0,1-1.15.88h-3.2a1.06,1.06,0,0,1-.31,0,1.19,1.19,0,0,1-.84-1.45l4.94-18.58a.71.71,0,0,0-.51-.87l-.18,0H31.39a.71.71,0,0,0-.69.53L28,32a1.2,1.2,0,0,1-1.15.89H23.62a1.12,1.12,0,0,1-.31,0,1.18,1.18,0,0,1-.83-1.46l3.93-14.52A1.19,1.19,0,0,1,27.56,16Z" style="stroke:#000;stroke-miterlimit:10;stroke-width:2.35364198684692px"/><path d="M94.42,17.45,89.48,36a.7.7,0,0,0,.5.87l.19,0h14.55a.71.71,0,0,0,.69-.53l5.19-19.55a1.19,1.19,0,0,1,1.15-.88h3.31a1.17,1.17,0,0,1,.32,0,1.19,1.19,0,0,1,.83,1.46L109.7,41.52a1.21,1.21,0,0,1-1.15.87H83.66a1,1,0,0,1-.3,0,1.19,1.19,0,0,1-.85-1.45l6.4-24.06A1.2,1.2,0,0,1,90.06,16h3.21a1.1,1.1,0,0,1,.31,0A1.19,1.19,0,0,1,94.42,17.45Z" style="stroke:#000;stroke-miterlimit:10;stroke-width:2.35364198684692px"/><path d="M122,16h25a1.36,1.36,0,0,1,.29,0,1.19,1.19,0,0,1,.86,1.45l-.78,3.09a1.19,1.19,0,0,1-1.15.9H125.81a.71.71,0,0,0-.69.53l-1,3.58a.72.72,0,0,0,.5.88l.19,0h19.2a1.06,1.06,0,0,1,.31,0,1.19,1.19,0,0,1,.84,1.46l-3.6,13.57a1.19,1.19,0,0,1-1.15.88h-24.9l-.26,0a1.19,1.19,0,0,1-.9-1.42l.7-3.09a1.19,1.19,0,0,1,1.16-.93h20.36a.7.7,0,0,0,.69-.53l1-3.58a.73.73,0,0,0-.51-.88l-.18,0H118.36a1,1,0,0,1-.3,0,1.19,1.19,0,0,1-.85-1.46l3.61-13.57A1.19,1.19,0,0,1,122,16Z" style="stroke:#000;stroke-miterlimit:10;stroke-width:2.35364198684692px"/><path d="M161.58,21.43h-8.35a1.35,1.35,0,0,1-.28,0,1.19,1.19,0,0,1-.87-1.44l.77-3.09A1.2,1.2,0,0,1,154,16H178.9a1.43,1.43,0,0,1,.29,0,1.19,1.19,0,0,1,.87,1.44l-.76,3.09a1.2,1.2,0,0,1-1.16.91h-9.42A.71.71,0,0,0,168,22l-5.25,19.55a1.18,1.18,0,0,1-1.14.88h-3.31a1.12,1.12,0,0,1-.32,0,1.18,1.18,0,0,1-.83-1.46l5.09-18.56a.72.72,0,0,0-.5-.88Z" style="stroke:#000;stroke-miterlimit:10;stroke-width:2.35364198684692px"/><path d="M185.79,16h25a1.33,1.33,0,0,1,.28,0,1.19,1.19,0,0,1,.87,1.44l-.76,3.09a1.2,1.2,0,0,1-1.15.91H189.62a.7.7,0,0,0-.69.53l-5.2,19.55a1.19,1.19,0,0,1-1.15.88h-3.31a1.1,1.1,0,0,1-.31,0,1.19,1.19,0,0,1-.84-1.46l6.52-24A1.19,1.19,0,0,1,185.79,16Z" style="stroke:#000;stroke-miterlimit:10;stroke-width:2.35364198684692px"/><path d="M217.56,16h3.31a1.06,1.06,0,0,1,.31,0,1.19,1.19,0,0,1,.84,1.46l-6.58,24.06a1.18,1.18,0,0,1-1.14.87h-3.21a1.1,1.1,0,0,1-.31,0,1.19,1.19,0,0,1-.84-1.45l6.47-24.06A1.19,1.19,0,0,1,217.56,16Z" style="stroke:#000;stroke-miterlimit:10;stroke-width:2.35364198684692px"/><path d="M258.32,16h3.21a1,1,0,0,1,.3,0,1.19,1.19,0,0,1,.85,1.45L257.73,36a.71.71,0,0,0,.51.87l.18,0h19.05a1.45,1.45,0,0,1,.29,0,1.18,1.18,0,0,1,.86,1.44l-.77,3.09a1.19,1.19,0,0,1-1.15.9H251.81a1.17,1.17,0,0,1-.32,0,1.19,1.19,0,0,1-.83-1.46l6.51-24A1.2,1.2,0,0,1,258.32,16Z" style="stroke:#000;stroke-miterlimit:10;stroke-width:2.35364198684692px"/><path d="M241.75,36.39l1-3.58a.73.73,0,0,0-.51-.88l-.18,0h-3.44a1.06,1.06,0,0,1-.31,0,1.19,1.19,0,0,1-.84-1.46l.82-3.09a1.19,1.19,0,0,1,1.15-.88h4.45a.73.73,0,0,0,.69-.53l1-3.59a.7.7,0,0,0-.5-.87l-.19,0H226.93a1.65,1.65,0,0,1-.31,0,1.19,1.19,0,0,1-.84-1.46l.82-3.09a1.19,1.19,0,0,1,1.15-.88H251.3a1.1,1.1,0,0,1,.31,0,1.19,1.19,0,0,1,.84,1.45l-6.4,24.06a1.19,1.19,0,0,1-1.15.88h-9.11a1.1,1.1,0,0,1-.31,0,1.18,1.18,0,0,1-.84-1.45l.82-3.09a1.2,1.2,0,0,1,1.15-.89h4.46A.69.69,0,0,0,241.75,36.39Z" style="stroke:#000;stroke-miterlimit:10;stroke-width:2.35364198684692px"/><path d="M220.17,40.9l3.61-13.58a1.19,1.19,0,0,1,1.15-.88h8.47a1,1,0,0,1,.3,0,1.2,1.2,0,0,1,.85,1.46L233.72,31a1.18,1.18,0,0,1-1.15.88h-3.8a.72.72,0,0,0-.69.53l-1,3.59a.71.71,0,0,0,.51.87l.18,0h2.8a1.45,1.45,0,0,1,.3,0,1.19,1.19,0,0,1,.85,1.46l-.82,3.09a1.19,1.19,0,0,1-1.15.88h-8.47a1.1,1.1,0,0,1-.31,0A1.18,1.18,0,0,1,220.17,40.9Z" style="stroke:#000;stroke-miterlimit:10;stroke-width:2.35364198684692px"/><path d="M136.69,98.75a1.54,1.54,0,0,1-.3,0,1.19,1.19,0,0,1-.84-1.46L142,73.19a1.19,1.19,0,0,1,1.15-.88h3.19a1,1,0,0,1,.3,0,1.19,1.19,0,0,1,.85,1.45L143.5,88.62a.48.48,0,0,0,.75.5L165.1,72.69l.07,0a1.19,1.19,0,0,1,1.65.31l1.22,1.8a1.17,1.17,0,0,1-.24,1.6l-11,8.71a.71.71,0,0,0-.13,1l6.13,8.42a1.2,1.2,0,0,1-.2,1.62l-3.09,2.56-.06,0a1.19,1.19,0,0,1-1.66-.26L151.64,90a.72.72,0,0,0-1-.16l0,0-9.74,7.68a5.4,5.4,0,0,1-3.36,1.17Z" style="stroke:#000;stroke-miterlimit:10;stroke-width:2.35364198684692px"/><path d="M205.92,92.38l3.75-14.07a.72.72,0,0,1,.69-.53h4.22a1.21,1.21,0,0,0,1.15-.87l.85-3.09a1.19,1.19,0,0,0-.83-1.47,1.1,1.1,0,0,0-.31,0h-8.92a1.19,1.19,0,0,0-1.15.88L199,97.25a1.2,1.2,0,0,0,.84,1.46,1.65,1.65,0,0,0,.31,0h8.64a1.19,1.19,0,0,0,1.15-.88l.86-3.09a1.19,1.19,0,0,0-.83-1.46,1.12,1.12,0,0,0-.32,0h-3l-.18,0A.71.71,0,0,1,205.92,92.38Z" style="stroke:#000;stroke-miterlimit:10;stroke-width:2.35364198684692px"/><path d="M231.36,73.81l-6.52,24.06a1.19,1.19,0,0,1-1.14.88h-8.91a1.13,1.13,0,0,1-.32,0,1.18,1.18,0,0,1-.83-1.46l.86-3.09a1.18,1.18,0,0,1,1.14-.87h4.23a.73.73,0,0,0,.69-.53l3.74-14.07a.72.72,0,0,0-.51-.88l-.18,0h-3a1.21,1.21,0,0,1-1.15-1.51l.86-3.09a1.18,1.18,0,0,1,1.15-.87h8.75a1.06,1.06,0,0,1,.31,0A1.19,1.19,0,0,1,231.36,73.81Z" style="stroke:#000;stroke-miterlimit:10;stroke-width:2.35364198684692px"/><path d="M94.1,92.75l1-3.59a.7.7,0,0,0-.5-.87l-.19,0H90.92a1.1,1.1,0,0,1-.31,0,1.19,1.19,0,0,1-.84-1.45l.82-3.09a1.19,1.19,0,0,1,1.15-.89h4.45a.72.72,0,0,0,.69-.53l1-3.58a.72.72,0,0,0-.51-.88l-.18,0H79.27a1.54,1.54,0,0,1-.3,0,1.2,1.2,0,0,1-.85-1.46l.82-3.09a1.19,1.19,0,0,1,1.15-.88h23.55a1.06,1.06,0,0,1,.31,0,1.18,1.18,0,0,1,.84,1.45l-6.4,24.06a1.2,1.2,0,0,1-1.15.89H88.13a1.54,1.54,0,0,1-.3,0A1.19,1.19,0,0,1,87,97.25l.82-3.09A1.2,1.2,0,0,1,89,93.28h4.46A.72.72,0,0,0,94.1,92.75Z" style="stroke:#000;stroke-miterlimit:10;stroke-width:2.35364198684692px"/><path d="M72.51,97.25l3.61-13.57a1.19,1.19,0,0,1,1.15-.89h8.47a1.65,1.65,0,0,1,.31,0,1.19,1.19,0,0,1,.84,1.46l-.82,3.09a1.19,1.19,0,0,1-1.15.88H81.11a.73.73,0,0,0-.69.53l-1,3.59a.71.71,0,0,0,.51.87l.18,0H83a1.06,1.06,0,0,1,.31,0,1.18,1.18,0,0,1,.84,1.45l-.82,3.09a1.2,1.2,0,0,1-1.15.89H73.66a1.54,1.54,0,0,1-.3,0A1.19,1.19,0,0,1,72.51,97.25Z" style="stroke:#000;stroke-miterlimit:10;stroke-width:2.35364198684692px"/><path d="M23.84,62.62H22.23a.72.72,0,0,0-.69.53L19.3,71.41a.71.71,0,0,0,.51.87l.18,0h.58a1.06,1.06,0,0,1,.31,0,1.19,1.19,0,0,1,.84,1.46l-.84,3.09a1.19,1.19,0,0,1-1.15.88H18.12a.71.71,0,0,0-.69.53L12.14,97.87a1.21,1.21,0,0,1-1.15.88H7.79a1.21,1.21,0,0,1-1.15-1.51L17.26,58a1.19,1.19,0,0,1,1.15-.88h6.27a1.12,1.12,0,0,1,.31.05,1.19,1.19,0,0,1,.84,1.45L25,61.75A1.19,1.19,0,0,1,23.84,62.62Z" style="stroke:#000;stroke-miterlimit:10;stroke-width:2.35364198684692px"/><path d="M38.23,62.62H29.85a1.1,1.1,0,0,1-.31,0,1.19,1.19,0,0,1-.84-1.46L29.54,58a1.19,1.19,0,0,1,1.15-.88H44.76a1.12,1.12,0,0,1,.31.05,1.19,1.19,0,0,1,.84,1.45L41,76.9a1.19,1.19,0,0,1-1.15.88H25.75a1.75,1.75,0,0,1-.32,0,1.19,1.19,0,0,1-.83-1.46l.83-3.09a1.19,1.19,0,0,1,1.15-.88H36a.71.71,0,0,0,.69-.53l2.24-8.26a.71.71,0,0,0-.5-.87Z" style="stroke:#000;stroke-miterlimit:10;stroke-width:2.35364198684692px"/><path d="M255.87,98.75h-3.21a1.65,1.65,0,0,1-.31,0,1.2,1.2,0,0,1-.84-1.46l4.94-18.57a.71.71,0,0,0-.5-.88l-.19,0H241.21a.73.73,0,0,0-.69.53l-5.19,19.55a1.2,1.2,0,0,1-1.15.89h-3.31a1.06,1.06,0,0,1-.31,0,1.19,1.19,0,0,1-.84-1.46l6.52-24a1.19,1.19,0,0,1,1.14-.88h24.89a1,1,0,0,1,.3,0,1.19,1.19,0,0,1,.85,1.45L257,97.86A1.2,1.2,0,0,1,255.87,98.75Z" style="stroke:#000;stroke-miterlimit:10;stroke-width:2.35364198684692px"/><path d="M198.61,77.78h-9.42a.73.73,0,0,0-.69.53l-5.24,19.55a1.2,1.2,0,0,1-1.15.89H178.8a1.21,1.21,0,0,1-1.15-1.51l5.09-18.56a.71.71,0,0,0-.5-.88l-.18,0h-8.35a.92.92,0,0,1-.29,0,1.19,1.19,0,0,1-.87-1.44l.78-3.09a1.19,1.19,0,0,1,1.15-.9h24.9a1.33,1.33,0,0,1,.28,0,1.19,1.19,0,0,1,.87,1.44l-.76,3.09A1.2,1.2,0,0,1,198.61,77.78Z" style="stroke:#000;stroke-miterlimit:10;stroke-width:2.35364198684692px"/><path d="M129.41,98.75H126.2a1.54,1.54,0,0,1-.3,0,1.19,1.19,0,0,1-.84-1.46L130,78.68a.72.72,0,0,0-.51-.88l-.18,0H114.76a.71.71,0,0,0-.69.53l-5.2,19.55a1.2,1.2,0,0,1-1.15.89h-3.31a1.12,1.12,0,0,1-.31,0,1.19,1.19,0,0,1-.84-1.46l6.52-24a1.19,1.19,0,0,1,1.15-.88h24.88a1.06,1.06,0,0,1,.31,0A1.19,1.19,0,0,1,137,73.8l-6.4,24.06A1.2,1.2,0,0,1,129.41,98.75Z" style="stroke:#000;stroke-miterlimit:10;stroke-width:2.35364198684692px"/><path d="M66.27,98.75H41.38a1.12,1.12,0,0,1-.31,0,1.19,1.19,0,0,1-.84-1.46l6.52-24a1.19,1.19,0,0,1,1.15-.88h3.2a1.06,1.06,0,0,1,.31,0,1.19,1.19,0,0,1,.84,1.45L47.31,92.38a.71.71,0,0,0,.5.87l.19,0h19a1.33,1.33,0,0,1,.28,0,1.19,1.19,0,0,1,.87,1.44l-.77,3.09A1.2,1.2,0,0,1,66.27,98.75Z" style="stroke:#000;stroke-miterlimit:10;stroke-width:2.35364198684692px"/><path d="M280.36,23.39v-6h-2.23v-.81h5.38v.81h-2.25v6Z"/><path d="M284.4,23.39v-6.8h1.35l1.61,4.81.33,1c.07-.25.19-.61.36-1.09l1.62-4.73h1.21v6.8H290V17.7l-2,5.69h-.81l-2-5.79v5.79Z"/></svg>