<?xml version="1.0" encoding="utf-8"?>
<svg version="1.1" id="Layer_1" xmlns="http://www.w3.org/2000/svg" xmlns:xlink="http://www.w3.org/1999/xlink" x="0px" y="0px"
	 width="207.9px" height="48.6px" viewBox="0 0 207.9 48.6" enable-background="new 0 0 207.9 48.6" xml:space="preserve">
<polygon fill="#FF1111" points="48.6,48.6 0,48.6 10.3,0 58.9,0 "/>
<g>
	<path d="M46.2,21.6l-9.4,21.2l-0.4-21.2h-8.2l-5.7,27h5.2l3.9-18.2c0.1-0.5,0.3-1.3,0.5-2.2c0.2-0.9,0.3-1.7,0.4-2.2l0.3,22.6h5.5
		l9.9-22.6c-0.1,0.5-0.3,1.2-0.5,2.2c-0.2,0.9-0.4,1.7-0.5,2.2l-3.9,18.2h5.2l5.7-27H46.2z"/>
	<path d="M66.9,21.6l-15.3,27h5.9l3-5.5h9.9l0.6,5.5h6.1l-3.8-27H66.9z M63,38.4l5.7-10.6l1.1,10.6H63z"/>
	<polygon points="102.7,21.6 80.8,21.6 79.8,26.4 87.9,26.4 83.2,48.5 88.9,48.5 93.6,26.4 101.6,26.4 	"/>
	<polygon points="124.5,26.4 125.5,21.6 105.7,21.6 100,48.5 120.4,48.5 121.5,43.7 106.5,43.7 108,36.8 121.1,36.8 122.1,32.1 
		109,32.1 110.2,26.4 	"/>
	<path d="M150.8,26.4c-0.2-0.8-0.5-1.6-0.9-2.3c-0.5-0.8-1.3-1.5-2.2-1.9c-0.9-0.4-2.3-0.7-4.2-0.7h-13.2l-5.7,27h5.5l2.2-10.6h5.8
		c1.7,0,2.7,0.3,3.2,0.9c0.5,0.6,0.6,1.7,0.2,3.4l-0.5,2.5c-0.2,0.8-0.2,1.6-0.3,2.3c0,0.4,0,0.8,0.1,1.4h6.2l0.1-0.7
		c-0.5-0.3-0.7-0.8-0.7-1.5c0-0.4,0.1-1.3,0.4-2.5l0.4-1.8c0.4-1.9,0.4-3.3,0.1-4.2c-0.3-0.9-1.1-1.6-2.2-2.1
		c1.6-0.5,2.8-1.4,3.8-2.6c0.9-1.2,1.5-2.5,1.8-3.8C151,28.2,151,27.3,150.8,26.4z M144.9,30c-0.3,1.5-1.1,2.5-2.3,3
		c-0.7,0.3-1.7,0.4-2.9,0.4h-6.4l1.5-7.2h6.5c1.2,0,2.1,0.2,2.7,0.5C145,27.3,145.3,28.4,144.9,30z"/>
	<polygon points="156.4,21.6 150.7,48.5 156.3,48.5 162,21.6 	"/>
	<path d="M174.6,21.6l-15.3,27h5.9l3-5.5h9.9l0.6,5.5h6.1l-3.8-27H174.6z M170.7,38.4l5.7-10.6l1.1,10.6H170.7z"/>
	<polygon points="194.5,43.7 199.2,21.6 193.6,21.6 187.8,48.5 206.8,48.5 207.9,43.7 	"/>
</g>
</svg>
